<svg xmlns="http://www.w3.org/2000/svg" viewBox="0 0 980 560" role="img" aria-label="Developer building an intelligent robotic vehicle on Arm">
<defs><radialGradient id="bg" cx="72%" cy="26%" r="80%"><stop stop-color="#0057FF"/><stop offset=".38" stop-color="#7233F7"/><stop offset=".72" stop-color="#080225"/></radialGradient><linearGradient id="arc" x1="0" x2="1"><stop stop-color="#02EAEA"/><stop offset=".5" stop-color="#0057FF"/><stop offset="1" stop-color="#7233F7"/></linearGradient></defs>
<rect width="980" height="560" fill="#080225"/><rect width="980" height="560" fill="url(#bg)" opacity=".55"/>
<path d="M-120 625 C200 270 780 270 1100 625" fill="none" stroke="url(#arc)" stroke-width="6" opacity=".9"/>
<path d="M-100 650 C210 300 770 300 1080 650" fill="none" stroke="#fff" stroke-width="1.5" opacity=".2"/>
<circle cx="735" cy="160" r="82" fill="#080225" opacity=".55"/><path d="M700 136c20-38 75-24 86 15 11 44-13 87-50 91-42 4-61-62-36-106z" fill="#10143a" stroke="#02EAEA" stroke-width="2" opacity=".9"/>
<path d="M696 256h118c34 0 63 29 63 63v106H635V316c0-33 27-60 61-60z" fill="#14164a" stroke="#7233F7" stroke-width="2"/>
<path d="M693 318h-78l-62 78M825 320h-75l-38 76" stroke="#02EAEA" stroke-width="10" stroke-linecap="round" fill="none"/>
<rect x="460" y="356" width="182" height="82" rx="12" fill="#080225" stroke="#02EAEA" stroke-width="3"/><circle cx="501" cy="439" r="32" fill="#080225" stroke="#fff" stroke-width="4"/><circle cx="604" cy="439" r="32" fill="#080225" stroke="#fff" stroke-width="4"/><rect x="505" y="284" width="80" height="64" rx="12" fill="#080225" stroke="#02EAEA" stroke-width="4"/><circle cx="529" cy="316" r="9" fill="#02EAEA"/><circle cx="561" cy="316" r="9" fill="#7233F7"/><path d="M520 344h48M545 284v-48M522 236h46" stroke="#fff" stroke-width="4"/>
<rect x="80" y="110" width="210" height="122" rx="10" fill="#080225" opacity=".48" stroke="#02EAEA"/><path d="M110 146h128M110 176h92M110 206h146" stroke="#02EAEA" stroke-width="4" opacity=".6"/>
<path d="M344 126h66M377 93v66" stroke="#7233F7" stroke-width="4" opacity=".75"/><circle cx="414" cy="238" r="18" fill="none" stroke="#02EAEA" stroke-width="3"/><circle cx="894" cy="112" r="10" fill="none" stroke="#fff" opacity=".8"/>
</svg>